 http://i28.fastpic.ru/big/2011/1114/b2/e48dceab1482d73a84e3a8e5015539b2.jpg

Country.......: United Kingdom, Germany, Canada, Switzerland
Genre.........: Drama, Thriller
Date release..: 04.11.2011 [World]
Director......: David Cronenberg
Writers.......: Christopher Hampton, John Kerr
Duration......: 93 min.
More..........: http://www.imdb.com/title/tt1571222
Trailer.......: http://www.imdb.com/video/imdb/vi3849821209
Trailer.......:

Pilot :
A look at how the intense relationship between Carl Jung and Sigmund Freud gives birth to psychoanalysis. 

Cats :
Keira Knightley   	 ...  	Sabina Spielrein
Viggo Mortensen 	... 	Sigmund Freud
Michael Fassbender 	... 	Carl Jung
Vincent Cassel 	... 	Otto Gross
Sarah Gadon 	... 	Emma Jung
Andre Hennicke 	... 	Professor Eugen Bleuler
Arndt Schwering-Sohnrey 	... 	Sandor Ferenczi
Mignon Remé 	Mignon Reme 	... 	Jung's Secretary
Mareike Carriere 	... 	Food Nurse
Franziska Arndt 	... 	Bath Nurse
Wladimir Matuchin 	... 	Nikolai Spielrein
André Dietz 	... 	Medical Policeman
Anna Thalbach 	... 	Bathtub Patient
Sarah Marecek 	... 	Orchard Nurse
Bjorn Geske 	... 	Orderly 

Data Technical :
!!! SAMPLE !!!
Audio.....: English
Subtitles.: None
Format : AVI
Format/Info : Audio Video Interleave
File size : 1.29 GiB
Duration : 1h 33mn
Overall bit rate : 1 975 Kbps
Writing library : VirtualDub build 32842/release
ID : 0
Format : MPEG-4 Visual
Format profile : Advanced Simple@L5
Format settings, BVOP : 2
Format settings, QPel : No
Format settings, GMC : No warppoints
Format settings, Matrix : Default (H.263)
Muxing mode : Packed bitstream
Codec ID : XVID
Codec ID/Hint : XviD
Duration : 1h 33mn
Bit rate : 1 842 Kbps
Width : 672 pixels
Height : 358 pixels
Display aspect ratio : 1.877
Frame rate : 25.000 fps
Color space : YUV
Chroma subsampling : 4:2:0
Bit depth : 8 bits
Scan type : Progressive
Compression mode : Lossy
Bits/(Pixel*Frame) : 0.306
Stream size : 1.20 GiB (93%)
Writing library : XviD 64
ID : 1
Format : MPEG Audio
Format version : Version 1
Format profile : Layer 3
Mode : Joint stereo
Mode extension : MS Stereo
Codec ID : 55
Codec ID/Hint : MP3
Duration : 1h 33mn
Bit rate mode : Variable
Bit rate : 120 Kbps
Channel(s) : 2 channels
Sampling rate : 48.0 KHz
Compression mode : Lossy
Stream size : 80.0 MiB (6%)
Alignment : Aligned on interleaves
Interleave, duration : 24 ms (0.60 video frame)
Interleave, preload duration : 509 ms

Screen : 
http://i32.fastpic.ru/big/2011/1114/14/85b4b05b8f9eee7b07ced61852afbb14.png 
http://i31.fastpic.ru/big/2011/1114/05/ca760e107f2558531bf47c314422f905.png 
http://i29.fastpic.ru/big/2011/1114/02/9e779ac8ed4a0ed55aa57f91b95bcf02.png